<svg width="20" height="20" viewBox="0 0 20 20" fill="none" xmlns="http://www.w3.org/2000/svg">
<path d="M7.05188 17.8635C7.55497 18.7686 8.69341 19.402 10.0148 19.402C11.3363 19.402 12.4747 18.7686 12.9778 17.8635H7.05188Z" fill="white"/>
<path d="M18.6944 17.2752H1.33533C1.00692 17.2752 0.706099 17.0452 0.637792 16.7115C0.570181 16.3812 0.715142 16.0552 1.00924 15.9142C1.07903 15.8672 1.60434 15.4857 2.13025 14.3316C3.09615 12.2123 3.29889 9.22684 3.29889 7.09553C3.29889 3.25001 6.31159 0.121531 10.0146 0.121531C13.7089 0.121531 16.716 3.23493 16.7303 7.06784C16.7307 7.07704 16.7308 7.08628 16.7308 7.09553C16.7308 9.22684 16.9336 12.2123 17.8995 14.3316C18.4254 15.4857 18.9507 15.8672 19.0205 15.9142C19.3146 16.0552 19.4596 16.3812 19.3919 16.7115C19.3236 17.0452 19.0228 17.2752 18.6944 17.2752Z" fill="white"/>
</svg>
