<svg width="53" height="53" viewBox="0 0 53 53" fill="none" xmlns="http://www.w3.org/2000/svg">
<path fill-rule="evenodd" clip-rule="evenodd" d="M15.8113 14.7874C15.0733 14.7874 14.4751 15.3882 14.4751 16.1293V27.4839C14.4751 28.2254 15.0732 28.8258 15.8107 28.8258H25.0141C25.752 28.8258 26.3516 29.4267 26.3516 30.1678V34.3673L31.4951 29.2175C31.7454 28.9666 32.0848 28.8258 32.4383 28.8258H37.1889C37.9268 28.8258 38.525 28.2251 38.525 27.484V16.1293C38.525 15.3882 37.9268 14.7874 37.1889 14.7874H15.8113ZM23.6794 31.5097H15.8107C13.5967 31.5097 11.8029 29.707 11.8029 27.4839V16.1293C11.8029 13.9059 13.5975 12.1036 15.8113 12.1036H37.1889C39.4027 12.1036 41.1972 13.9059 41.1972 16.1293V27.484C41.1972 29.7074 39.4027 31.5097 37.1889 31.5097H32.9906L25.9588 38.5503C25.5764 38.9331 25.002 39.0472 24.5033 38.8393C24.0045 38.6313 23.6794 38.1423 23.6794 37.6V31.5097Z" fill="white"/>
</svg>
