<svg width="87" height="87" viewBox="0 0 87 87" fill="none" xmlns="http://www.w3.org/2000/svg">
<path d="M36.2087 61.241C30.8926 46.4004 42.1254 40.9818 42.1254 40.9818C41.3394 48.9008 46.6514 55.0704 46.6514 55.0704C48.605 54.571 52.3339 52.2371 52.3339 52.2371C52.3339 55.0704 50.3664 61.2373 50.3664 61.2373C50.3664 61.2373 57.2544 56.7255 59.4225 49.2314C61.5879 41.7374 55.2978 34.2138 55.2978 34.2138C55.6768 39.518 53.5588 44.7347 49.4091 48.7202C49.6167 48.5171 49.7909 48.2917 49.9246 48.0473C50.6702 46.7841 51.8671 43.5011 51.1662 35.8984C50.1796 25.2264 38.7657 20.7262 38.7657 20.7262C39.7495 27.2286 36.7995 28.7267 29.8892 41.0692C22.979 53.4093 36.2087 61.241 36.2087 61.241Z" fill="white"/>
</svg>
