<svg width="30" height="30" viewBox="0 0 30 30" fill="none" xmlns="http://www.w3.org/2000/svg">
<path d="M24.375 13.125H22.5V9.375C22.5 7.38588 21.7098 5.47822 20.3033 4.0717C18.8968 2.66518 16.9891 1.875 15 1.875C13.0109 1.875 11.1032 2.66518 9.6967 4.0717C8.29018 5.47822 7.5 7.38588 7.5 9.375V13.125H5.625L3.75 15V26.25L5.625 28.125H24.375L26.25 26.25V15L24.375 13.125ZM9.375 9.375C9.375 7.88316 9.96763 6.45242 11.0225 5.39752C12.0774 4.34263 13.5082 3.75 15 3.75C16.4918 3.75 17.9226 4.34263 18.9775 5.39752C20.0324 6.45242 20.625 7.88316 20.625 9.375V13.125H9.375V9.375ZM24.375 26.25H5.625V15H24.375V26.25Z" fill="white"/>
</svg>
