<svg width="51" height="50" viewBox="0 0 51 50" fill="none" xmlns="http://www.w3.org/2000/svg">
<path d="M25.5 31.25C28.9518 31.25 31.75 28.4518 31.75 25C31.75 21.5482 28.9518 18.75 25.5 18.75C22.0482 18.75 19.25 21.5482 19.25 25C19.25 28.4518 22.0482 31.25 25.5 31.25Z" fill="#4B5563"/>
<path d="M42.1666 8.33332H35.5625L32.9791 5.52082C32.5909 5.09456 32.118 4.75396 31.5907 4.52079C31.0634 4.28763 30.4932 4.16701 29.9166 4.16666H21.0833C19.9166 4.16666 18.7916 4.66666 18 5.52082L15.4375 8.33332H8.83329C6.54163 8.33332 4.66663 10.2083 4.66663 12.5V37.5C4.66663 39.7917 6.54163 41.6667 8.83329 41.6667H42.1666C44.4583 41.6667 46.3333 39.7917 46.3333 37.5V12.5C46.3333 10.2083 44.4583 8.33332 42.1666 8.33332ZM25.5 35.4167C19.75 35.4167 15.0833 30.75 15.0833 25C15.0833 19.25 19.75 14.5833 25.5 14.5833C31.25 14.5833 35.9166 19.25 35.9166 25C35.9166 30.75 31.25 35.4167 25.5 35.4167Z" fill="#4B5563"/>
</svg>
