<svg width="152" height="152" viewBox="0 0 152 152" fill="none" xmlns="http://www.w3.org/2000/svg">
<path d="M139.731 120.032C136.198 128.571 130.207 135.866 122.518 140.992C114.829 146.118 105.79 148.842 96.5499 148.819H0L43.0368 105.371H96.4987C97.1483 105.37 97.7836 105.176 98.3237 104.815C98.8633 104.453 99.2844 103.94 99.5326 103.339C99.7814 102.739 99.8468 102.078 99.7201 101.441C99.5934 100.803 99.2813 100.218 98.8223 99.7576L76.6354 77.5403C76.2878 77.1932 76.0122 76.7818 75.8242 76.3283C75.6362 75.8749 75.5389 75.3885 75.5389 74.898C75.5389 74.407 75.6362 73.9206 75.8242 73.4677C76.0122 73.0142 76.2878 72.6023 76.6354 72.2557L104.693 44.3012L129.594 69.0683C136.147 75.5997 140.611 83.9329 142.416 93.0078C144.221 102.083 143.286 111.489 139.731 120.032Z" fill="white"/>
<path d="M104.693 44.3026H51.5604C50.8992 44.2576 50.2418 44.4357 49.6938 44.8085C49.1458 45.1813 48.7386 45.7272 48.5377 46.3588C48.2198 46.946 48.1168 47.6256 48.2463 48.2806C48.3758 48.9356 48.7297 49.5249 49.247 49.947L71.475 72.3596C71.8261 72.7087 72.1047 73.1237 72.2953 73.5807C72.4853 74.0377 72.5835 74.5276 72.5835 75.0226C72.5835 75.5177 72.4853 76.0076 72.2953 76.4646C72.1047 76.9216 71.8261 77.3366 71.475 77.6852L43.0784 105.444L18.5065 80.8828C11.973 74.3442 7.52451 66.0161 5.7231 56.9498C3.9217 47.8841 4.8483 38.4876 8.38579 29.9482C11.9233 21.4086 17.9128 14.1095 25.5976 8.97317C33.2822 3.83687 42.3171 1.09392 51.5604 1.09102H147.771L104.693 44.3026Z" fill="white"/>
</svg>
